<?xml version="1.0" standalone="no"?>
<!DOCTYPE svg PUBLIC "-//W3C//DTD SVG 20010904//EN"
 "http://www.w3.org/TR/2001/REC-SVG-20010904/DTD/svg10.dtd">
<svg version="1.0" xmlns="http://www.w3.org/2000/svg"
 width="512.000000pt" height="512.000000pt" viewBox="0 0 512.000000 512.000000"
 preserveAspectRatio="xMidYMid meet">
<metadata>
Created by potrace 1.16, written by Peter Selinger 2001-2019
</metadata>
<g transform="translate(0.000000,512.000000) scale(0.100000,-0.100000)"
fill="#000000" stroke="none">
<path d="M3550 4528 c-14 -6 -42 -17 -63 -26 -21 -9 -82 -59 -140 -117 -121
-120 -159 -148 -212 -161 -61 -16 -424 -11 -455 5 -14 8 -84 71 -156 141 -109
108 -138 131 -180 143 -46 14 -50 14 -66 -4 -22 -25 -38 -104 -38 -183 0 -71
26 -226 41 -240 12 -13 12 -29 -1 -21 -14 9 -13 -94 2 -148 10 -38 8 -51 -11
-108 -44 -125 -37 -291 18 -413 23 -53 13 -85 -26 -87 -20 -1 -22 -3 -8 -6 20
-4 20 -6 -10 -68 -31 -62 -36 -68 -156 -147 -244 -161 -434 -385 -593 -697
-113 -222 -166 -405 -187 -641 -15 -181 6 -463 47 -609 l7 -24 -79 5 c-104 6
-169 35 -233 103 -90 95 -101 192 -39 335 28 66 33 86 33 163 0 88 0 89 -33
118 -79 71 -203 5 -282 -151 -47 -92 -97 -254 -110 -350 -13 -98 -2 -215 28
-303 58 -173 211 -315 411 -382 l64 -22 -164 -7 c-90 -5 -218 -14 -284 -21
-113 -11 -92 -12 339 -14 416 -1 466 -3 540 -20 95 -23 388 -48 723 -61 174
-7 259 -15 318 -29 137 -33 218 -41 412 -41 228 0 428 12 753 45 206 21 810
65 903 65 20 0 30 7 37 25 5 14 15 25 21 25 7 0 10 2 8 4 -6 7 -509 54 -759
71 -113 8 -276 15 -362 15 -130 0 -158 3 -158 14 0 41 -88 106 -144 106 -19 0
-25 6 -30 34 -6 31 -2 38 66 107 117 119 174 253 185 441 9 152 -27 319 -93
435 l-24 41 49 165 c27 91 54 198 61 238 6 41 28 121 48 179 l37 105 0 225 0
225 -31 77 c-30 73 -30 77 -10 67 17 -9 15 -6 -5 13 -24 21 -55 86 -45 95 13
13 167 -42 220 -79 21 -15 27 -17 18 -5 -19 23 -120 72 -181 88 -55 14 -61 24
-33 60 10 13 28 47 39 74 60 142 69 271 27 392 -19 54 -24 85 -20 112 4 20 11
83 15 141 5 58 14 137 21 175 7 39 10 104 7 145 -5 75 -31 160 -49 160 -5 0
-6 5 -3 10 7 12 7 12 -25 -2z m-1163 -67 c17 -11 78 -67 134 -126 57 -59 131
-125 164 -147 33 -22 54 -34 48 -27 -7 7 -13 16 -13 19 0 3 90 6 200 6 199 1
200 1 193 -20 -13 -35 -9 -105 7 -121 13 -13 15 -5 15 63 l0 77 45 21 c27 13
91 67 158 132 151 151 191 169 236 109 32 -44 35 -179 6 -289 -13 -45 -24
-103 -26 -128 l-2 -45 7 40 8 40 2 -39 c0 -22 -4 -66 -11 -97 -11 -54 -10 -64
17 -144 33 -100 30 -121 -5 -32 -24 61 -25 61 -28 28 -2 -19 1 -54 7 -77 30
-118 2 -277 -64 -366 l-35 -48 -63 0 c-78 0 -107 8 -107 29 0 9 -5 23 -10 31
-6 10 -8 4 -4 -21 l6 -36 -53 -11 -54 -11 51 4 c45 3 53 1 57 -16 4 -16 -1
-19 -36 -21 l-42 -1 36 -4 c30 -3 36 -8 32 -23 -4 -15 -21 -20 -86 -28 l-82
-11 68 3 c37 2 67 0 67 -5 0 -5 -7 -9 -15 -9 -8 0 -15 -4 -15 -10 0 -14 -78
-32 -113 -25 -53 10 -106 37 -112 55 -7 22 34 86 76 118 16 13 29 31 29 39 0
9 -3 14 -6 11 -3 -4 -20 0 -38 7 -40 17 -143 9 -168 -12 -9 -8 -21 -12 -27 -8
-7 4 -8 0 -5 -10 4 -9 17 -21 30 -25 31 -12 86 -89 82 -115 -4 -30 -81 -65
-143 -65 -74 1 -165 47 -165 85 0 10 18 15 68 18 l67 3 -72 2 c-59 2 -73 5
-73 18 0 14 -12 15 -93 9 l-93 -7 -50 46 c-105 94 -154 307 -108 466 25 85 28
135 10 187 -18 51 -22 113 -7 97 5 -5 11 -20 13 -34 l3 -25 14 30 c14 31 82
81 129 95 22 7 17 8 -28 9 -40 1 -51 4 -40 11 11 7 6 8 -17 4 -31 -6 -34 -4
-50 32 -12 28 -16 66 -16 131 0 101 14 138 55 146 21 4 21 4 -3 6 -15 0 -34
-8 -45 -20 -26 -29 -32 -169 -10 -263 21 -87 15 -96 -9 -14 -26 89 -27 263 -2
301 21 33 58 35 104 8z m646 -1136 c-1 -5 -10 -12 -20 -14 -23 -4 -33 -19 -33
-51 -1 -23 -2 -24 -14 -7 -14 18 -14 18 -18 0 -3 -13 -8 -8 -14 17 -9 30 -15
35 -42 38 -33 3 -42 16 -19 26 22 9 162 1 160 -9z m-658 -39 l43 -45 -59 -20
-59 -20 4 42 5 42 -11 -47 c-8 -32 -18 -49 -34 -57 -22 -10 -22 -9 -9 23 15
35 67 125 73 126 2 0 23 -20 47 -44z m1045 -26 c-18 -11 -84 -11 -120 0 -17 6
0 8 55 9 55 0 75 -2 65 -9z m65 -1 c-4 -5 10 -56 31 -112 43 -119 64 -192 63
-227 0 -19 -4 -14 -18 22 -29 73 -57 113 -126 176 l-64 59 24 13 c22 12 30 11
61 -4 49 -23 56 -12 9 15 l-37 22 29 23 c31 26 37 29 28 13z m-871 -18 c11
-18 -84 -29 -121 -13 -13 5 -4 9 32 13 80 9 84 9 89 0z m759 -8 c-13 -2 -35
-2 -50 0 -16 2 -5 4 22 4 28 0 40 -2 28 -4z m-882 -32 l50 -28 -55 -32 c-31
-17 -56 -33 -56 -36 0 -3 24 8 53 25 53 30 101 39 111 21 3 -5 -13 -20 -36
-34 -55 -32 -131 -99 -160 -140 -14 -20 4 -8 48 34 65 61 167 129 192 129 6 0
-12 -23 -39 -52 -44 -46 -95 -118 -85 -118 3 0 20 22 40 48 35 49 101 102 125
102 7 0 2 -13 -13 -33 -52 -67 -79 -146 -82 -232 l-3 -80 9 70 c10 87 30 143
71 200 18 25 34 45 36 45 3 0 37 -21 76 -47 100 -64 144 -83 200 -83 79 0 134
-53 178 -172 l20 -53 -6 50 c-9 69 -41 132 -81 158 -34 22 -43 37 -23 37 6 0
42 21 81 47 53 36 71 44 78 34 6 -10 10 -8 15 8 9 30 18 27 65 -26 23 -27 36
-37 28 -23 -7 14 -13 32 -13 40 0 8 -6 15 -14 15 -7 0 -21 11 -30 25 -15 24
-15 24 3 10 16 -12 19 -12 27 3 14 25 21 22 78 -29 89 -80 125 -180 137 -379
7 -131 -9 -226 -57 -325 -25 -52 -58 -91 -163 -195 -129 -127 -133 -133 -189
-247 -53 -112 -134 -244 -143 -236 -2 3 10 41 26 87 17 45 30 85 30 89 0 12
-117 -193 -127 -224 l-11 -29 -6 25 c-13 56 -36 223 -37 272 0 46 -2 50 -11
28 -5 -14 -8 -63 -6 -108 4 -71 3 -80 -8 -60 -27 52 -86 132 -80 108 6 -19 5
-21 -3 -10 -21 29 -12 98 20 162 30 60 150 192 224 247 30 22 30 22 -15 -1
-64 -33 -202 -172 -235 -237 -39 -79 -44 -145 -13 -212 14 -30 42 -74 63 -99
46 -55 49 -64 64 -170 7 -47 39 -218 71 -380 32 -162 63 -320 69 -350 5 -30
13 -63 16 -72 6 -16 1 -18 -39 -18 -39 0 -116 -21 -116 -32 0 -2 32 -1 71 0
80 4 120 -8 149 -46 27 -34 27 -111 0 -143 l-19 -24 -1 40 c0 46 -28 98 -62
116 -21 11 -20 10 5 -20 33 -39 43 -75 31 -110 -8 -23 -16 -26 -62 -29 l-52
-3 0 36 c0 33 -26 102 -35 93 -3 -2 1 -20 7 -40 6 -20 8 -48 4 -62 -6 -24 -11
-26 -56 -26 -112 0 -132 28 -141 194 -4 85 -13 141 -28 186 -40 119 -147 322
-290 550 -231 368 -255 428 -249 635 2 68 -1 120 -5 116 -18 -18 -37 -120 -37
-198 0 -98 22 -175 74 -258 l37 -60 -37 45 c-66 79 -149 154 -205 184 -76 42
-189 48 -289 16 -94 -30 -111 -52 -22 -29 92 24 198 24 262 0 68 -26 108 -58
185 -148 35 -41 83 -89 105 -107 80 -61 410 -628 410 -704 0 -14 -10 -40 -22
-58 -19 -27 -31 -33 -87 -43 -56 -10 -72 -10 -103 4 -21 8 -45 15 -55 15 -10
0 -24 9 -31 21 -8 13 -9 18 -2 14 6 -4 23 -4 38 0 l27 7 -35 18 c-19 11 -28
19 -19 20 14 0 16 11 14 67 -2 63 11 123 27 123 15 0 29 39 19 57 -5 10 -21
50 -36 90 -26 71 -77 153 -94 153 -9 0 12 -89 31 -127 6 -11 7 -26 3 -33 -4
-7 -17 11 -31 46 -13 32 -31 65 -40 73 -15 15 -15 14 -5 -7 20 -39 51 -194 51
-257 0 -42 -8 -78 -26 -120 -14 -33 -31 -78 -38 -99 l-13 -39 -89 -18 c-119
-24 -239 -64 -303 -100 -29 -17 -51 -32 -49 -35 3 -2 67 16 144 40 152 48 260
72 371 82 61 6 78 3 115 -15 61 -30 82 -63 84 -136 2 -33 1 -49 -2 -35 -11 65
-27 101 -51 119 -38 31 -45 26 -13 -9 31 -33 41 -79 28 -127 -7 -27 -16 -34
-49 -43 -23 -6 -43 -10 -45 -7 -2 2 0 18 5 35 6 19 6 45 0 66 -13 48 -29 55
-17 8 7 -30 6 -47 -6 -75 -14 -35 -17 -37 -64 -37 -84 0 -565 40 -603 50 -43
12 -49 23 -50 93 -1 29 -5 63 -9 77 -7 20 -8 16 -9 -23 -1 -54 -27 -125 -40
-111 -5 5 -19 43 -32 84 -23 74 -23 75 -29 37 -3 -21 -9 -38 -15 -38 -13 -1
-33 66 -34 113 l-1 37 -57 -27 c-52 -24 -69 -27 -173 -27 -102 0 -122 3 -177
26 -75 32 -117 66 -169 137 -66 91 -66 91 -59 57 3 -16 17 -54 30 -82 20 -45
21 -53 8 -53 -29 0 -99 82 -122 144 -51 138 -46 290 15 474 44 130 74 191 121
243 67 74 133 90 180 43 24 -24 25 -30 20 -102 -3 -58 -13 -96 -38 -152 -28
-63 -33 -87 -33 -150 1 -188 129 -302 364 -326 l71 -7 16 -59 c14 -48 18 -56
24 -39 5 13 -4 70 -26 154 -47 188 -59 305 -52 526 8 280 47 432 178 692 124
250 234 405 381 544 78 73 285 231 293 223 2 -2 -5 -30 -16 -63 -11 -33 -29
-120 -40 -194 -11 -74 -30 -160 -43 -192 -32 -79 -22 -75 15 6 20 42 37 103
49 177 34 209 62 301 97 317 13 6 25 11 27 11 2 0 6 -39 9 -87 5 -84 37 -206
60 -228 7 -7 8 -3 3 10 -28 77 -49 181 -50 244 l-1 74 50 18 c68 24 78 23 136
-10z m139 -1 c0 -13 -60 -13 -80 0 -11 7 -2 10 33 10 26 0 47 -4 47 -10z m715
-4 c-19 -13 -51 -11 -61 5 -3 5 14 9 37 9 39 0 41 -1 24 -14z m84 -104 c111
-111 160 -260 147 -449 -8 -116 -33 -200 -102 -336 -56 -110 -74 -175 -29
-102 23 37 25 38 25 14 0 -14 -21 -93 -46 -175 -62 -206 -67 -228 -118 -579
-25 -170 -53 -353 -62 -405 -14 -76 -15 -110 -7 -175 6 -49 6 -85 1 -92 -7 -9
3 -12 41 -11 86 0 142 -51 140 -129 l-1 -38 -8 38 c-11 57 -25 63 -22 9 2 -32
-2 -53 -13 -67 -15 -19 -15 -18 -10 15 7 42 -27 115 -63 139 l-24 15 25 -37
c32 -47 41 -86 28 -120 -10 -26 -14 -27 -84 -27 -76 0 -97 9 -97 44 0 11 -18
56 -40 100 -57 114 -69 192 -76 494 -7 280 -3 327 44 436 36 86 77 147 170
256 44 52 79 97 77 99 -6 5 -112 -46 -146 -69 -16 -12 -29 -18 -29 -15 0 19
74 111 156 195 108 110 182 226 221 344 23 72 27 97 27 221 1 112 -3 151 -18
193 -20 59 -121 200 -161 226 -14 9 -23 21 -20 26 3 6 0 7 -8 4 -8 -3 -17 -2
-20 3 -3 5 6 10 20 11 18 1 39 -13 82 -56z m-632 -5 c44 -9 61 -8 108 7 53 16
58 16 100 0 44 -16 112 -16 160 1 l20 7 -20 -17 c-11 -9 -48 -32 -83 -52 -83
-46 -157 -49 -229 -8 -113 65 -147 86 -128 80 11 -4 43 -12 72 -18z m658
-1402 c28 -93 38 -177 31 -274 -7 -120 -26 -193 -71 -279 -20 -37 -33 -58 -30
-47 54 171 57 403 9 566 -11 35 -13 68 -8 106 l7 56 23 -39 c14 -21 31 -61 39
-89z m-1175 -474 c0 -6 -4 -13 -10 -16 -5 -3 -10 1 -10 9 0 9 5 16 10 16 6 0
10 -4 10 -9z m-3 -113 c-2 -13 -4 -5 -4 17 -1 22 1 32 4 23 2 -10 2 -28 0 -40z
m-20 -140 c-3 -8 -6 -5 -6 6 -1 11 2 17 5 13 3 -3 4 -12 1 -19z m18 -48 c3 -5
1 -10 -4 -10 -6 0 -11 5 -11 10 0 6 2 10 4 10 3 0 8 -4 11 -10z m261 -154 c27
-27 34 -42 34 -73 0 -36 -13 -63 -32 -63 -4 0 -8 9 -8 20 0 32 -25 82 -58 118
l-31 32 31 0 c21 0 40 -10 64 -34z m83 -45 c0 -10 -4 -7 -10 8 -5 14 -13 30
-17 36 -4 6 1 2 11 -8 9 -11 17 -27 16 -36z"/>
<path d="M3459 4427 c-41 -27 -154 -157 -209 -240 -42 -62 -49 -103 -18 -101
10 1 15 -2 12 -7 -3 -5 0 -9 5 -9 6 0 12 3 12 8 8 49 7 62 -4 57 -7 -4 7 11
30 33 44 41 112 67 154 59 18 -3 15 -5 -11 -6 -19 -1 -41 -5 -49 -10 -9 -6 9
-8 50 -5 l64 4 -57 -13 c-79 -18 -82 -27 -12 -28 l59 -1 -60 -9 c-82 -12 -89
-17 -25 -18 30 -1 62 -6 70 -11 11 -8 8 -9 -13 -4 -15 3 -49 3 -75 -2 -44 -7
-45 -8 -17 -14 l30 -7 -38 -7 c-47 -10 -57 -23 -14 -18 18 2 50 -4 72 -12 l40
-15 -55 0 c-53 -1 -100 -20 -100 -42 0 -5 14 -9 30 -9 51 0 94 -25 140 -79 47
-56 54 -55 65 12 5 24 2 43 -5 52 -15 18 -10 46 25 144 57 160 38 321 -39 321
-13 0 -38 -10 -57 -23z m-10 -121 c-10 -9 -89 -46 -89 -41 0 6 72 44 84 45 5
0 7 -2 5 -4z m-18 -45 c-11 -7 -9 -10 10 -13 13 -3 5 -5 -18 -5 -25 0 -58 -10
-80 -23 -28 -17 -34 -18 -22 -4 16 19 86 54 109 54 13 0 13 -2 1 -9z m84 -161
c10 -11 16 -20 13 -20 -3 0 -13 9 -23 20 -10 11 -16 20 -13 20 3 0 13 -9 23
-20z"/>
<path d="M2436 4390 c106 -117 210 -270 200 -295 -3 -8 -1 -15 5 -15 14 0 22
26 15 53 -6 24 -172 223 -227 272 -29 25 -28 23 7 -15z"/>
<path d="M2408 4223 c6 -2 18 -2 25 0 6 3 1 5 -13 5 -14 0 -19 -2 -12 -5z"/>
<path d="M2453 4193 c9 -2 23 -2 30 0 6 3 -1 5 -18 5 -16 0 -22 -2 -12 -5z"/>
<path d="M2438 4163 c12 -2 32 -2 45 0 12 2 2 4 -23 4 -25 0 -35 -2 -22 -4z"/>
<path d="M2749 4113 c-4 -65 6 -76 17 -17 3 19 2 45 -4 57 -8 18 -10 11 -13
-40z"/>
<path d="M2426 4085 c-21 -7 -45 -20 -52 -27 -17 -17 -20 -114 -5 -151 l11
-28 31 22 c17 12 35 32 40 46 9 24 77 62 112 63 24 0 21 17 -5 31 -22 12 -84
14 -121 4 l-22 -6 23 14 c12 7 19 17 15 21 -4 4 -1 7 7 6 31 -5 60 0 60 10 0
14 -48 12 -94 -5z"/>
<path d="M3031 3920 c0 -8 6 -24 14 -34 19 -25 19 -9 0 24 -8 14 -14 19 -14
10z"/>
<path d="M3130 3867 c17 -21 21 -116 6 -157 -8 -24 -7 -24 10 -8 11 11 19 37
22 71 4 49 2 57 -24 84 -16 16 -22 21 -14 10z"/>
<path d="M2701 3802 c0 -18 6 -46 14 -62 19 -38 28 -39 13 -2 -6 15 -14 43
-18 62 l-8 35 -1 -33z"/>
<path d="M2520 3706 c-53 -12 -54 -13 -24 -20 27 -6 33 -13 38 -46 8 -51 57
-106 106 -121 31 -9 49 -9 86 1 46 13 47 13 69 -14 l22 -28 5 33 c11 76 -23
138 -95 173 -64 31 -135 39 -207 22z m84 -43 c-6 -37 27 -90 63 -99 23 -6 32
-1 60 31 26 31 36 36 46 26 20 -20 -12 -64 -59 -80 -35 -12 -44 -12 -77 4 -41
19 -77 69 -77 107 0 29 7 38 31 38 15 0 17 -6 13 -27z m86 9 c0 -5 -7 -17 -15
-28 -14 -18 -14 -18 -15 9 0 17 5 27 15 27 8 0 15 -4 15 -8z"/>
<path d="M3240 3711 c-46 -14 -87 -40 -114 -71 -53 -63 -59 -155 -12 -199 l23
-22 -5 52 -5 52 56 -7 c93 -12 160 31 178 115 11 48 21 58 59 60 38 2 -67 27
-115 27 -22 0 -51 -3 -65 -7z m0 -52 c0 -11 -4 -17 -10 -14 -5 3 -10 13 -10
21 0 8 5 14 10 14 6 0 10 -9 10 -21z m97 -21 c-12 -88 -115 -131 -173 -73 -26
26 -30 72 -6 68 6 -2 12 2 12 9 0 7 10 -8 23 -32 12 -25 30 -46 39 -48 26 -5
68 42 68 77 0 27 10 38 34 40 5 1 6 -18 3 -41z"/>
<path d="M3477 3565 c-12 -84 -53 -137 -127 -163 l-35 -12 43 4 c23 2 54 12
68 21 37 24 66 95 62 153 l-3 47 -8 -50z"/>
<path d="M2330 3414 c0 -19 59 -103 82 -117 16 -11 66 -16 173 -20 113 -4 135
-3 90 4 -33 6 -100 9 -148 8 -101 -1 -114 6 -168 90 -16 25 -29 40 -29 35z"/>
<path d="M2446 3409 c6 -10 72 -31 83 -27 5 2 -12 10 -39 19 -27 8 -47 12 -44
8z"/>
<path d="M3373 3313 c15 -2 37 -2 50 0 12 2 0 4 -28 4 -27 0 -38 -2 -22 -4z"/>
<path d="M2538 3303 c7 -3 16 -2 19 1 4 3 -2 6 -13 5 -11 0 -14 -3 -6 -6z"/>
<path d="M3153 3223 c9 -2 23 -2 30 0 6 3 -1 5 -18 5 -16 0 -22 -2 -12 -5z"/>
<path d="M2708 3173 c18 -2 45 -2 60 0 15 2 0 4 -33 4 -33 0 -45 -2 -27 -4z"/>
<path d="M3362 2945 c12 -24 23 -43 26 -41 4 5 -36 86 -43 86 -3 0 5 -20 17
-45z"/>
<path d="M2152 2468 c-23 -62 -34 -128 -22 -128 4 0 11 17 14 38 4 20 14 59
23 85 21 67 9 71 -15 5z"/>
<path d="M3211 2461 c-8 -34 -31 -77 -63 -120 -74 -97 -76 -101 -18 -41 59 61
103 145 98 187 -2 23 -6 18 -17 -26z"/>
<path d="M1622 1695 c-47 -13 -102 -41 -102 -51 0 -3 15 3 33 13 25 14 55 18
138 18 l106 0 94 -47 94 -46 -45 39 c-83 72 -215 103 -318 74z"/>
<path d="M1961 1500 c55 -37 129 -133 176 -229 28 -59 37 -90 41 -148 4 -64 1
-79 -23 -128 -15 -31 -45 -70 -68 -90 -95 -77 -95 -78 -39 -49 112 59 172 159
172 290 0 62 -27 167 -40 159 -4 -3 -19 13 -33 34 -45 68 -90 113 -151 153
-33 21 -64 38 -69 38 -6 0 10 -13 34 -30z"/>
<path d="M2067 1166 c-12 -114 -87 -216 -227 -308 -41 -27 -77 -52 -80 -55
-12 -13 77 30 129 61 120 74 180 165 189 288 6 81 -3 91 -11 14z"/>
<path d="M3245 1718 c-7 -29 -35 -295 -34 -316 2 -44 40 154 45 241 7 91 1
126 -11 75z"/>
<path d="M3162 1663 c-62 -89 -75 -154 -65 -333 7 -142 20 -141 22 3 1 110 19
211 48 285 28 70 26 88 -5 45z"/>
<path d="M3201 1364 c0 -11 3 -14 6 -6 3 7 2 16 -1 19 -3 4 -6 -2 -5 -13z"/>
<path d="M3588 3343 c12 -2 32 -2 45 0 12 2 2 4 -23 4 -25 0 -35 -2 -22 -4z"/>
<path d="M3668 3333 c7 -3 16 -2 19 1 4 3 -2 6 -13 5 -11 0 -14 -3 -6 -6z"/>
<path d="M2208 3293 c7 -3 16 -2 19 1 4 3 -2 6 -13 5 -11 0 -14 -3 -6 -6z"/>
<path d="M2168 3283 c7 -3 16 -2 19 1 4 3 -2 6 -13 5 -11 0 -14 -3 -6 -6z"/>
<path d="M3770 3156 c0 -2 8 -10 18 -17 15 -13 16 -12 3 4 -13 16 -21 21 -21
13z"/>
<path d="M3590 3136 c0 -2 8 -10 18 -17 15 -13 16 -12 3 4 -13 16 -21 21 -21
13z"/>
</g>
</svg>