<!-- src/assets/tiger.svg -->
<?xml version="1.0" standalone="no"?>
<!DOCTYPE svg PUBLIC "-//W3C//DTD SVG 20010904//EN"
 "http://www.w3.org/TR/2001/REC-SVG-20010904/DTD/svg10.dtd">
<svg version="1.0" xmlns="http://www.w3.org/2000/svg"
 width="512.000000pt" height="512.000000pt" viewBox="0 0 512.000000 512.000000"
 preserveAspectRatio="xMidYMid meet">
<metadata>
Created by potrace 1.16, written by Peter Selinger 2001-2019
</metadata>
<g transform="translate(0.000000,512.000000) scale(0.100000,-0.100000)"
fill="#000000" stroke="none">
<path d="M1270 4701 c-51 -16 -87 -41 -127 -84 -106 -115 -139 -280 -87 -433
9 -27 36 -79 61 -116 36 -54 46 -79 53 -131 10 -80 27 -113 80 -156 68 -54 89
-134 50 -184 -30 -37 -24 -41 15 -11 31 23 35 31 35 73 0 49 -12 74 -62 127
l-29 31 28 -4 c26 -4 31 2 65 68 32 63 35 74 22 84 -12 8 -4 11 38 11 55 0
119 26 150 60 16 18 14 19 -33 20 -75 2 -82 20 -12 27 32 3 76 11 98 18 l40
12 -35 10 c-19 5 -62 7 -95 4 l-60 -6 40 24 c22 14 60 27 85 30 118 15 121 16
110 30 -14 17 -96 35 -162 35 -38 0 -49 3 -41 11 19 19 96 22 136 6 20 -9 37
-14 37 -12 0 12 -85 46 -127 52 -41 5 -44 7 -23 15 28 10 94 -2 169 -32 l52
-20 -32 61 c-43 79 -104 133 -182 158 -129 41 -211 34 -264 -21 l-28 -30 39
26 c51 34 93 33 182 -3 99 -40 125 -55 157 -88 l28 -30 -68 23 c-37 13 -81 24
-98 24 -28 1 -29 2 -12 14 17 13 15 16 -26 40 -53 31 -89 33 -132 6 -99 -61
-88 -171 27 -275 41 -37 49 -48 37 -56 -12 -8 -12 -10 1 -20 12 -8 11 -9 -5
-5 -11 2 -35 7 -52 11 -18 4 -33 11 -33 16 0 5 -9 9 -19 9 -27 0 -77 44 -107
96 -74 126 -15 313 121 379 49 25 64 27 130 23 66 -4 73 -3 57 9 -15 13 -14
14 13 8 80 -16 220 -112 269 -185 21 -32 96 -208 100 -238 5 -33 25 -35 66 -8
58 38 61 53 14 90 -21 17 -73 64 -114 105 -41 41 -59 62 -40 48 115 -88 185
-105 291 -70 166 54 241 63 481 59 198 -4 233 -7 318 -29 52 -14 109 -31 125
-38 17 -7 35 -11 40 -10 6 2 37 2 71 2 60 0 61 1 145 66 l84 67 -41 -50 c-64
-76 -149 -152 -178 -160 -14 -3 -26 -12 -26 -19 0 -17 28 -49 62 -70 33 -21
32 -22 107 130 51 102 70 130 128 186 70 67 127 106 198 134 33 12 36 13 20 1
-63 -47 -63 -46 -15 -30 193 67 376 -150 284 -334 -14 -29 -29 -52 -34 -52 -4
0 -10 13 -13 29 -9 46 -63 100 -113 113 -23 7 -41 15 -38 20 8 13 87 9 117 -6
36 -19 34 -9 -5 33 -83 88 -212 79 -363 -25 -30 -20 -55 -38 -55 -38 0 -1 33
0 73 1 l72 2 -65 -18 c-71 -19 -101 -33 -118 -53 -9 -12 -1 -12 47 -4 31 5 70
6 87 1 28 -7 26 -8 -31 -24 -58 -16 -105 -37 -105 -46 0 -2 16 3 35 11 44 18
115 18 140 0 17 -12 12 -14 -45 -13 -39 1 -75 -4 -90 -13 -24 -13 -21 -14 57
-26 65 -9 93 -19 130 -44 27 -17 41 -30 32 -27 -57 18 -138 27 -174 19 l-40
-9 56 -12 c64 -13 84 -26 94 -58 l6 -22 -58 19 -58 20 25 -21 c51 -42 148 -81
191 -77 34 3 38 2 23 -9 -16 -12 -16 -16 7 -65 35 -75 65 -108 100 -108 16 0
29 4 29 8 0 5 11 14 24 21 33 18 48 56 41 105 -4 35 -1 47 25 81 104 139 130
199 137 316 11 157 -68 305 -198 375 -55 30 -169 26 -243 -9 -60 -28 -157 -93
-212 -144 -17 -15 -36 -29 -42 -30 -6 -2 -44 -24 -84 -50 -94 -61 -145 -66
-268 -30 -171 51 -183 52 -450 52 l-255 -1 -120 -33 c-158 -44 -210 -49 -263
-22 -22 11 -98 64 -169 117 -156 118 -248 164 -341 169 -37 3 -78 1 -92 -4z
m2675 -547 c-36 -73 -119 -163 -136 -147 -9 9 1 25 47 71 32 32 70 81 84 109
14 27 27 43 28 36 2 -8 -8 -39 -23 -69z m-2764 -83 c50 -38 58 -51 33 -51 -23
0 -98 79 -124 130 -29 57 -25 59 13 4 19 -27 54 -64 78 -83z m109 -120 c0 -31
-16 -90 -30 -111 -9 -13 -14 -11 -35 13 -33 37 -34 102 -4 141 l21 27 24 -22
c13 -13 24 -34 24 -48z m2519 10 c19 -58 14 -97 -15 -120 -47 -37 -54 -29 -54
58 0 71 2 82 22 95 25 18 31 14 47 -33z"/>
<path d="M1560 4533 c14 -10 56 -47 94 -83 69 -65 75 -65 27 -2 -25 35 -91 84
-126 95 -15 5 -14 2 5 -10z"/>
<path d="M3493 4516 c-51 -24 -143 -100 -143 -118 0 -5 21 6 48 25 93 68 130
82 217 82 65 0 89 -5 125 -24 l45 -23 -25 27 c-39 42 -73 55 -147 55 -51 0
-81 -6 -120 -24z"/>
<path d="M2425 4399 c-190 -8 -284 -38 -355 -114 l-25 -26 45 25 c25 14 86 37
135 52 84 26 102 28 280 28 182 1 194 0 280 -28 50 -15 108 -37 130 -48 l40
-20 -23 24 c-53 58 -173 102 -297 110 -33 2 -127 1 -210 -3z"/>
<path d="M2504 4342 c-8 -5 -11 -50 -9 -142 5 -214 -14 -250 -131 -250 -135 0
-191 -27 -262 -127 l-23 -32 45 25 c74 41 203 84 254 84 26 0 59 6 74 14 33
17 38 13 38 -36 0 -31 -3 -38 -20 -38 -11 0 -20 -4 -20 -9 0 -6 -22 -36 -50
-67 -55 -63 -61 -79 -27 -68 64 19 88 35 102 66 l14 33 1 -55 c1 -30 7 -98 14
-150 l12 -95 8 93 c5 51 5 151 1 222 -7 128 -2 150 23 110 11 -17 23 -20 96
-20 104 0 235 -43 300 -99 11 -9 1 9 -21 39 -22 30 -54 65 -71 77 -39 26 -113
37 -190 28 -53 -6 -61 -4 -89 19 -17 14 -35 38 -41 53 -17 42 -20 262 -5 268
27 10 171 -3 218 -19 28 -10 93 -41 145 -69 52 -29 112 -60 133 -69 l38 -18
-46 54 c-78 91 -238 155 -397 158 -43 1 -73 7 -80 15 -12 15 -18 16 -34 5z"/>
<path d="M2275 4313 c-112 -27 -237 -96 -305 -167 l-35 -37 65 29 c36 16 108
52 160 79 98 50 173 73 240 73 46 0 72 9 64 21 -5 9 -153 11 -189 2z"/>
<path d="M2295 4225 c-79 -17 -108 -29 -158 -64 -43 -30 -182 -151 -173 -151
2 0 71 33 153 73 81 39 182 81 223 91 83 21 130 41 130 56 0 14 -104 11 -175
-5z"/>
<path d="M2550 4236 c0 -10 70 -45 130 -66 36 -12 132 -54 214 -92 81 -38 149
-68 151 -66 2 2 -31 34 -73 71 -84 73 -185 128 -270 146 -52 11 -152 15 -152
7z"/>
<path d="M2323 4111 c-78 -27 -166 -60 -195 -73 -53 -25 -118 -73 -118 -88 0
-4 52 10 115 31 64 21 150 45 193 55 89 19 134 43 150 79 14 30 15 45 5 45 -5
0 -72 -23 -150 -49z"/>
<path d="M2540 4147 c0 -18 36 -64 61 -77 10 -6 64 -22 118 -36 55 -13 136
-38 181 -55 46 -16 84 -28 87 -26 2 3 -13 19 -34 37 -46 41 -125 77 -268 123
-60 20 -118 39 -127 42 -12 5 -18 2 -18 -8z"/>
<path d="M1763 4111 c-27 -21 -65 -58 -83 -82 -18 -24 -56 -68 -84 -98 -46
-49 -48 -61 -3 -23 9 8 17 12 17 9 0 -4 -21 -24 -48 -44 -47 -37 -52 -44 -52
-62 0 -6 -23 -37 -50 -70 -28 -34 -47 -61 -43 -61 4 0 -3 -9 -15 -20 -12 -12
-22 -25 -22 -30 0 -5 -30 -42 -67 -82 l-68 -72 48 33 c26 17 47 28 47 23 0
-18 -44 -47 -158 -104 -105 -52 -112 -57 -72 -52 25 4 74 19 109 35 35 16 66
27 68 25 3 -3 -28 -23 -69 -45 -40 -22 -82 -47 -93 -56 -19 -15 -18 -15 20 -9
22 4 53 13 68 21 24 12 18 2 -33 -63 -34 -42 -78 -102 -100 -134 -21 -31 -56
-71 -77 -89 l-38 -31 60 26 c33 14 66 28 74 31 10 5 10 0 -2 -23 -31 -60 -79
-116 -125 -146 l-47 -30 54 6 c30 4 66 13 81 21 l27 14 -27 -67 c-37 -92 -50
-157 -50 -255 0 -51 -5 -88 -12 -95 -7 -7 -8 -12 -4 -12 4 0 -7 -18 -24 -40
-18 -23 -30 -43 -28 -45 3 -3 32 4 66 16 53 18 65 27 92 69 31 49 83 170 76
178 -2 2 -17 -18 -32 -45 -53 -94 -64 -110 -85 -129 l-22 -19 21 41 c11 22 26
68 32 103 6 34 13 70 16 79 11 37 -26 -36 -41 -80 -24 -69 -39 -62 -31 13 8
70 29 128 91 249 23 47 47 102 53 123 l11 38 -47 -38 c-46 -37 -47 -37 -28 -8
10 17 32 46 47 66 l29 37 -23 6 -22 6 25 23 c14 12 38 37 55 55 24 26 26 32
10 26 -11 -4 -31 -15 -45 -24 -53 -36 -53 -32 4 35 65 76 105 136 161 239 21
38 65 105 99 150 61 79 152 208 190 269 14 21 15 28 5 22 -7 -4 -3 4 11 20
l25 28 -35 -18 c-31 -15 -27 -9 35 56 153 160 167 181 78 110z"/>
<path d="M3221 4124 c55 -62 185 -210 202 -228 10 -11 31 -45 48 -74 39 -69
103 -139 151 -163 43 -22 44 -21 22 47 -32 100 -35 103 -106 146 -39 23 -82
57 -96 76 -87 111 -142 165 -214 206 l-33 19 26 -29z"/>
<path d="M3110 4126 c0 -3 23 -31 50 -62 28 -32 80 -99 115 -149 35 -50 81
-106 101 -125 l37 -35 -43 80 c-23 44 -57 100 -75 125 -57 78 -185 193 -185
166z"/>
<path d="M1812 4054 c-65 -67 -132 -173 -132 -210 0 -29 51 26 96 104 22 36
56 88 77 115 59 74 35 69 -41 -9z"/>
<path d="M1767 3822 c-31 -48 -65 -108 -76 -132 -36 -80 -20 -151 22 -99 l19
24 -8 -55 c-11 -74 -9 -106 6 -125 15 -19 62 -19 98 -1 84 42 195 16 233 -55
10 -20 10 -20 -23 -3 -47 25 -105 22 -172 -9 -137 -63 -208 -10 -225 167 l-6
70 -27 -51 c-33 -61 -34 -75 -7 -162 l20 -68 -20 -59 c-67 -198 -78 -297 -57
-496 10 -84 20 -177 22 -207 l6 -53 18 30 c23 37 44 49 101 58 24 4 50 11 57
17 14 11 92 160 92 174 0 4 -16 -16 -36 -45 -39 -59 -63 -72 -133 -72 -62 0
-77 17 -97 111 -20 96 -15 286 10 343 24 57 80 121 118 136 18 7 48 20 67 29
32 15 34 15 45 -3 61 -101 94 -126 179 -138 34 -5 65 -14 69 -21 15 -23 8
-137 -11 -193 -11 -30 -51 -108 -90 -173 -39 -64 -82 -146 -96 -182 l-25 -64
3 70 c2 64 7 80 55 165 28 51 51 95 49 97 -2 1 -31 -39 -65 -90 -81 -124 -109
-226 -81 -305 6 -17 17 -33 25 -36 13 -5 21 -56 8 -56 -4 0 -33 25 -66 55 -48
45 -66 55 -94 55 -27 0 -34 -4 -34 -20 0 -24 83 -91 147 -120 25 -11 44 -22
42 -24 -7 -8 -284 70 -324 91 -78 41 -155 153 -140 206 5 16 -6 9 -41 -26 -26
-27 -44 -41 -40 -31 22 58 67 314 76 439 13 175 31 238 104 365 55 97 77 172
59 205 -8 14 -26 -7 -98 -116 -137 -208 -155 -259 -155 -442 0 -84 -5 -113
-29 -186 -16 -47 -38 -145 -50 -217 -11 -71 -23 -139 -27 -150 -4 -11 15 2 44
30 l51 49 -13 -39 c-8 -21 -16 -70 -20 -109 -6 -65 -5 -68 7 -35 29 77 34 79
42 17 l7 -58 24 16 c13 8 25 15 28 15 2 0 -4 -24 -14 -52 -10 -29 -17 -54 -15
-56 1 -1 19 7 39 19 l36 21 0 -22 c0 -19 4 -21 23 -15 12 4 94 10 182 14 156
6 159 6 130 23 -16 9 -43 31 -60 48 l-30 32 34 -7 c77 -16 166 -52 169 -68 2
-12 -4 -17 -20 -18 -19 -1 -18 -3 7 -9 47 -11 12 -18 -113 -23 -69 -2 -108 0
-100 6 8 5 -5 6 -36 3 -27 -3 -65 -6 -84 -6 -19 0 -33 -3 -29 -6 3 -3 -18 -29
-46 -56 -29 -28 -47 -49 -42 -47 6 2 35 16 65 31 30 15 80 30 110 32 42 4 49
3 30 -4 -22 -9 -21 -9 9 -5 18 3 54 6 80 7 l46 1 -50 8 c-43 6 -40 7 20 3 71
-4 190 -20 168 -23 -7 0 -10 -7 -7 -15 4 -10 -12 -17 -58 -25 -80 -16 -162
-58 -166 -87 -3 -20 0 -21 45 -13 26 5 70 15 97 24 68 21 82 18 21 -5 -61 -22
-41 -25 35 -5 63 17 81 19 60 5 -8 -5 -54 -19 -103 -31 -68 -17 -107 -34 -173
-76 -47 -31 -83 -58 -80 -60 3 -3 20 4 38 15 42 25 83 38 74 23 -10 -16 -1
-14 44 9 61 31 61 23 0 -11 -73 -40 -85 -52 -67 -68 12 -9 47 5 181 70 175 87
240 104 87 23 -50 -26 -103 -60 -118 -76 -28 -29 -27 -29 31 6 33 20 66 36 72
36 7 0 16 -17 20 -37 9 -45 -10 -82 -51 -103 -39 -19 -148 -18 -171 1 -15 12
-23 7 -81 -56 -35 -39 -69 -79 -75 -90 -6 -11 9 2 33 29 l43 48 19 -23 c10
-13 45 -53 77 -89 32 -36 69 -78 83 -95 l25 -30 -4 30 c-3 18 -1 24 3 15 5 -9
43 -49 86 -90 65 -61 94 -100 170 -228 63 -105 129 -200 209 -296 149 -178
220 -277 263 -363 46 -91 47 -46 2 57 -46 104 -92 172 -176 260 -85 89 -144
176 -171 253 -22 62 -26 122 -9 133 6 3 38 -20 73 -53 33 -33 87 -81 119 -107
57 -45 165 -106 188 -106 6 0 -9 22 -33 48 -63 68 -113 146 -142 224 -18 48
-22 68 -13 71 9 3 8 9 -4 23 -15 18 -43 93 -51 139 -3 14 -9 8 -20 -25 l-17
-45 1 73 c1 40 -1 75 -5 78 -11 11 -60 -88 -65 -132 -2 -24 -9 -47 -15 -51
-16 -10 -1 121 19 159 l17 33 -24 -21 c-13 -12 -30 -25 -38 -29 -16 -9 -12 0
21 47 10 14 18 29 18 33 0 10 -43 -6 -64 -24 -18 -16 -18 -15 -2 17 17 33 17
34 -3 27 -26 -8 -26 -6 3 34 31 41 58 61 94 67 15 3 56 16 91 30 35 14 65 23
68 21 2 -3 -24 -28 -57 -57 -33 -29 -59 -54 -57 -57 3 -2 35 18 73 44 51 36
64 42 51 23 -31 -45 -18 -43 39 6 43 36 54 42 44 23 -7 -13 -24 -37 -39 -54
-21 -23 -21 -26 -3 -11 l22 19 -15 -36 c-8 -20 -13 -37 -10 -37 3 0 28 35 55
78 28 42 50 73 51 67 1 -5 1 -23 1 -40 -1 -16 2 -22 4 -12 7 24 21 21 40 -8
23 -35 27 -26 10 23 -20 55 -11 54 13 0 23 -51 90 -157 91 -142 0 5 -11 39
-25 74 -14 35 -25 66 -25 69 0 3 19 -13 42 -34 23 -22 36 -32 29 -23 -19 26
-51 91 -47 96 3 2 12 -8 21 -22 19 -28 125 -122 125 -110 0 5 -26 32 -57 61
-50 47 -54 53 -32 53 13 0 39 -9 58 -21 19 -11 50 -22 70 -24 42 -4 73 -38 96
-104 15 -44 15 -44 -5 -26 -24 22 -39 12 -22 -15 19 -31 14 -33 -21 -6 -44 34
-51 33 -32 -4 8 -16 20 -42 25 -57 9 -25 7 -24 -24 12 -40 46 -46 42 -15 -9
12 -20 22 -59 24 -93 4 -53 4 -54 -5 -20 -10 37 -57 137 -64 137 -3 0 -1 -15
4 -32 l9 -33 -29 35 -30 34 0 -64 c-1 -36 -7 -78 -14 -95 -13 -30 -13 -30 -9
15 5 47 -9 100 -27 100 -5 0 -10 -7 -10 -15 0 -19 -29 -90 -34 -84 -2 2 0 29
4 59 4 30 6 57 4 59 -1 2 -9 -12 -18 -30 -8 -19 -33 -54 -56 -79 -42 -46 -39
-29 6 37 13 20 24 41 24 46 0 6 -16 -12 -36 -41 -20 -29 -40 -52 -43 -52 -10
0 -54 69 -74 114 l-18 41 6 -45 c3 -25 15 -60 26 -79 29 -49 17 -48 -26 1
l-37 43 7 -40 c7 -39 7 -39 -13 -22 -11 10 -26 32 -32 48 -15 35 -35 25 -45
-22 -10 -43 2 -80 36 -119 46 -53 113 -157 153 -238 l37 -74 28 44 c28 44 141
161 148 154 3 -2 -5 -22 -16 -44 -11 -21 -27 -70 -36 -108 -9 -39 -28 -87 -44
-109 -57 -80 -89 -176 -70 -207 6 -9 9 -8 9 7 0 24 51 131 79 165 l21 25 0
-45 c0 -45 1 -44 40 53 62 154 98 196 295 343 110 83 109 83 79 17 -50 -112
-63 -143 -60 -143 2 0 37 39 77 88 40 48 133 146 207 219 l135 131 -46 59
c-55 71 -115 134 -182 192 -42 37 -44 39 -10 16 61 -43 131 -113 188 -188 l51
-68 44 45 45 45 -29 34 c-34 40 -84 74 -84 56 0 -6 -7 -9 -15 -5 -8 3 -15 1
-15 -5 0 -6 -4 -7 -10 -4 -5 3 -10 14 -10 24 0 10 -27 46 -60 79 -55 56 -79
94 -47 76 60 -36 131 -92 177 -141 91 -95 100 -108 125 -169 14 -33 25 -52 25
-42 0 9 3 18 8 20 4 1 27 29 50 61 24 32 45 57 47 55 7 -6 -33 -172 -59 -252
-25 -73 -80 -188 -146 -306 -36 -63 -28 -56 56 57 105 140 164 262 179 368 10
76 12 80 32 64 19 -16 19 -15 -25 55 -13 21 -19 35 -14 32 5 -3 10 0 9 7 0 6
1 26 2 42 l2 30 19 -23 c11 -13 29 -36 40 -50 12 -16 17 -19 11 -7 -5 11 -23
38 -40 59 -34 43 -37 72 -6 69 17 -1 16 1 -5 17 -14 11 -38 25 -55 31 -16 7
-41 20 -55 30 -28 19 -150 69 -169 69 -7 0 -10 4 -7 8 3 5 -9 6 -27 4 l-32 -5
30 -13 c17 -7 39 -13 50 -14 11 0 58 -18 104 -41 l84 -41 -41 -24 c-23 -14
-47 -22 -52 -19 -22 14 -8 -11 27 -47 l37 -38 40 37 c21 21 36 30 33 21 -3 -9
-9 -33 -13 -52 -3 -20 -10 -36 -15 -36 -5 0 -8 -3 -7 -8 3 -8 -84 -131 -93
-132 -11 0 -37 79 -32 98 9 37 -143 159 -299 238 -81 41 -113 64 -88 64 6 0
33 -11 60 -25 51 -26 69 -21 50 15 -6 11 -12 20 -13 20 -1 0 -33 11 -72 25
-50 17 -62 24 -42 24 16 1 26 5 22 11 -3 6 -1 10 4 10 6 0 11 -8 11 -17 0 -15
2 -15 9 -4 8 12 19 12 71 2 34 -7 64 -10 67 -7 3 2 -11 8 -31 11 -19 4 -47 18
-61 31 -14 13 -33 24 -41 24 -17 0 -19 17 -1 23 10 4 10 7 0 18 -21 22 -15 29
25 29 77 0 395 -65 442 -90 21 -11 29 3 10 15 -6 4 -7 12 -4 18 4 7 4 9 -1 5
-9 -9 -35 9 -35 24 0 6 8 4 18 -3 15 -13 16 -12 4 3 -8 10 -19 16 -24 15 -6
-1 -13 4 -15 11 -4 10 4 12 33 8 22 -3 1 5 -45 19 -46 13 -86 27 -90 30 -7 8
62 -3 108 -17 36 -11 50 -1 51 37 1 15 5 12 21 -15 16 -28 19 -30 14 -10 -3
14 -8 38 -12 54 l-6 28 28 -18 28 -18 -6 56 c-4 31 -9 65 -12 75 -3 10 6 -7
20 -37 14 -30 32 -68 40 -85 l15 -30 -5 45 c-3 25 -7 59 -9 75 -4 42 -17 63
-74 118 l-50 49 -11 -49 c-16 -65 -56 -121 -115 -160 -73 -49 -85 -40 -22 18
54 49 116 151 116 190 0 10 -11 31 -25 47 -24 29 -24 30 -5 35 25 6 25 15 0
112 -15 58 -20 111 -20 206 0 71 -7 162 -15 206 -16 84 -63 188 -101 224 l-24
22 0 -35 c0 -20 14 -68 30 -106 52 -123 63 -189 67 -402 2 -107 4 -213 5 -235
2 -74 -35 -135 -136 -228 -88 -81 -95 -85 -154 -94 -34 -6 -62 -7 -62 -3 0 4
37 27 83 51 82 44 99 65 78 97 -11 18 -74 -13 -115 -57 -17 -17 -36 -31 -43
-31 -19 0 -16 37 3 44 13 5 16 18 12 71 -3 51 -13 81 -47 147 -40 78 -121 202
-121 185 0 -4 13 -31 30 -60 33 -60 64 -142 74 -202 5 -31 -9 -10 -64 95 -151
289 -155 298 -155 376 0 87 15 109 83 119 77 12 130 50 166 123 14 27 21 32
39 26 12 -3 29 -11 37 -18 8 -6 31 -19 50 -29 40 -21 99 -92 117 -139 19 -55
14 -14 -13 100 -28 119 -31 156 -15 223 11 48 3 100 -17 107 -13 4 -28 -30
-43 -99 -22 -100 -95 -127 -201 -73 -55 28 -129 34 -154 13 -23 -19 -29 -2 -8
22 28 31 88 59 126 59 18 0 53 -9 77 -20 88 -40 121 -20 103 61 -7 28 -12 62
-12 77 0 24 1 25 13 7 19 -24 35 -12 43 32 10 53 -10 116 -62 200 -54 87 -70
101 -36 32 25 -50 25 -51 15 -196 -6 -80 -15 -149 -20 -154 -4 -4 -35 3 -68
16 -33 14 -63 25 -67 25 -7 0 -58 -53 -82 -85 -14 -18 -14 -16 -5 20 23 83
-15 201 -78 243 -31 19 -29 12 7 -33 16 -21 35 -56 41 -78 22 -82 -9 -210 -72
-298 -29 -42 -59 -144 -59 -204 0 -63 15 -94 136 -297 120 -202 162 -289 170
-353 l5 -50 -19 23 c-28 31 -35 28 -17 -8 42 -81 -6 -134 -165 -185 -56 -18
-134 -58 -144 -74 -8 -12 165 35 226 61 55 23 118 88 118 121 1 21 1 21 12 3
16 -29 -7 -91 -45 -120 -51 -39 -103 -57 -220 -76 -165 -27 -164 -44 3 -37
153 5 204 20 247 71 l26 31 -6 -39 c-8 -50 -55 -100 -116 -123 -35 -14 -76
-18 -174 -18 -111 0 -124 -2 -99 -12 52 -21 164 -35 230 -28 84 9 81 -8 -7
-36 -39 -13 -68 -26 -65 -31 9 -14 -84 -9 -148 8 -33 8 -62 13 -65 11 -5 -6
74 -52 132 -77 25 -11 57 -31 72 -46 35 -35 20 -44 -78 -44 -85 0 -128 17
-227 92 -150 112 -116 220 128 413 106 84 139 127 140 182 0 42 -12 48 -39 19
l-22 -24 -39 21 -38 22 -79 -24 c-125 -37 -187 -38 -288 -6 -90 28 -124 28
-158 -2 -16 -15 -19 -14 -45 10 -22 21 -31 24 -40 15 -18 -18 -15 -38 14 -96
21 -42 43 -64 127 -125 173 -127 238 -211 223 -292 -8 -40 -81 -110 -172 -165
-51 -31 -68 -35 -136 -39 -102 -4 -114 0 -92 34 25 38 8 43 -27 9 -30 -28 -75
-105 -90 -154 -6 -20 -7 -21 -8 -5 -2 53 92 195 129 195 19 0 210 85 210 94 0
2 -28 -4 -62 -15 -35 -10 -88 -19 -119 -19 -49 0 -60 -4 -100 -37 -132 -109
-216 -214 -253 -313 -10 -28 -14 -33 -10 -15 9 52 49 128 95 182 54 65 207
193 231 193 9 0 19 4 22 8 3 5 -18 10 -46 11 -43 1 -118 31 -118 46 0 2 38 1
83 -2 61 -4 105 -1 163 12 120 26 116 31 -25 27 -145 -5 -218 10 -271 54 -33
29 -60 73 -60 100 0 15 3 15 23 -4 49 -46 109 -63 254 -69 172 -7 171 9 -2 38
-140 24 -169 35 -224 84 -37 34 -41 42 -41 84 l1 46 16 -30 c42 -80 140 -137
293 -170 l35 -7 -19 21 c-10 11 -43 30 -72 41 -135 50 -224 113 -224 158 0 9
9 32 20 50 22 36 13 43 -15 12 -27 -30 -34 -13 -24 60 11 79 65 192 180 375
45 72 90 150 99 175 20 53 35 132 22 111 -7 -9 -13 2 -22 40 -7 30 -36 98 -64
152 l-51 99 0 98 c0 88 3 102 24 132 l24 33 -28 -25 c-15 -14 -34 -39 -41 -57
-17 -38 -18 -130 -4 -169 9 -23 4 -20 -33 19 -24 26 -48 47 -54 47 -6 0 -39
-9 -73 -20 -103 -33 -100 -35 -100 78 0 107 18 207 49 277 11 25 19 45 17 45
-1 0 -27 -40 -59 -88z m172 -489 c-4 -25 4 -47 25 -68 27 -27 46 -25 84 8 l22
20 0 -21 c0 -50 -107 -84 -143 -44 -22 25 -31 67 -17 91 10 20 31 30 29 14z
m76 -4 c10 -15 -1 -23 -20 -15 -9 3 -13 10 -10 16 8 13 22 13 30 -1z m1010 2
c7 -12 -12 -24 -25 -16 -11 7 -4 25 10 25 5 0 11 -4 15 -9z m95 -53 c0 -33
-51 -78 -89 -78 -54 0 -107 64 -80 96 10 12 15 10 30 -16 32 -52 94 -36 114
29 6 18 9 20 16 10 5 -8 9 -26 9 -41z m-732 -835 c86 -36 191 -37 265 -4 89
39 175 21 146 -32 -9 -15 -12 -15 -32 -2 -54 35 -141 -55 -161 -166 -8 -49
-15 -65 -30 -67 -25 -5 -36 14 -37 68 -1 52 -5 45 -14 -23 -6 -42 -9 -48 -28
-45 -17 2 -23 13 -30 52 -18 109 -146 223 -196 174 -10 -11 -15 -9 -27 6 -16
22 -5 42 31 56 32 13 42 12 113 -17z m1154 -133 c24 0 37 -4 33 -10 -3 -6 -49
-10 -103 -10 -85 0 -102 -3 -137 -24 l-39 -24 54 -6 c30 -3 69 -8 85 -9 17 -2
-27 -5 -96 -6 -69 0 -128 1 -131 4 -2 3 -3 18 0 34 4 28 8 30 71 40 83 14 158
19 195 15 16 -2 46 -4 68 -4z m-1734 -117 c-16 -2 -40 -2 -55 0 -16 2 -3 4 27
4 30 0 43 -2 28 -4z m1796 -22 c50 -20 24 -20 -64 0 l-85 19 60 -4 c33 -2 73
-9 89 -15z m-1747 -107 c-3 -3 -12 -4 -19 -1 -8 3 -5 6 6 6 11 1 17 -2 13 -5z
m1349 -160 c85 -51 91 -64 9 -19 -74 40 -96 55 -79 55 6 0 37 -16 70 -36z
m-71 -119 c75 -75 146 -167 174 -225 10 -21 9 -22 -1 -6 -89 131 -194 247
-287 316 -33 25 -61 49 -61 53 0 17 98 -60 175 -138z m-1183 55 c-100 -90
-155 -152 -202 -228 -35 -58 -49 -69 -24 -19 38 74 109 160 200 241 53 47 100
86 105 86 6 0 -30 -36 -79 -80z m1112 -82 c45 -52 98 -141 111 -188 3 -14 -7
1 -24 32 -42 81 -65 114 -135 187 -41 43 -50 57 -29 42 18 -12 52 -45 77 -73z
m-1077 -140 c-3 -8 -6 -5 -6 6 -1 11 2 17 5 13 3 -3 4 -12 1 -19z m1200 -100
c-3 -8 -6 -5 -6 6 -1 11 2 17 5 13 3 -3 4 -12 1 -19z m-1010 -190 c-3 -8 -6
-5 -6 6 -1 11 2 17 5 13 3 -3 4 -12 1 -19z"/>
<path d="M2547 3820 c-11 -44 42 -104 111 -125 33 -10 27 7 -30 79 -55 69 -72
79 -81 46z"/>
<path d="M3469 3762 c21 -43 59 -100 83 -127 63 -71 99 -126 151 -235 27 -57
69 -124 107 -168 34 -40 52 -68 40 -62 -43 23 -29 2 27 -40 52 -38 98 -60 129
-60 6 0 -19 31 -55 69 -36 38 -83 97 -104 131 -34 55 -36 61 -17 55 12 -4 43
-4 68 0 42 7 45 8 25 18 -24 10 -31 27 -12 27 5 0 7 5 4 10 -3 6 -16 10 -28
10 -39 1 -101 36 -157 89 l-55 52 45 -29 c25 -16 55 -34 67 -40 21 -12 -154
162 -230 228 -21 19 -56 60 -78 92 -22 32 -42 58 -44 58 -3 0 12 -35 34 -78z
m336 -382 c43 -28 46 -31 20 -26 -37 8 -73 34 -94 66 -15 24 -15 25 4 9 11 -9
43 -31 70 -49z"/>
<path d="M2272 3809 c-30 -12 -128 -112 -114 -117 19 -6 158 64 175 89 10 13
17 27 17 31 0 11 -49 9 -78 -3z"/>
<path d="M2690 3813 c0 -22 45 -65 92 -89 45 -23 52 -24 66 -11 13 13 10 20
-25 57 -32 35 -47 43 -86 47 -28 3 -47 2 -47 -4z"/>
<path d="M2006 3750 c-53 -27 -101 -64 -126 -100 -19 -27 -20 -31 -5 -36 11
-5 27 7 52 36 20 23 59 60 86 81 54 43 52 48 -7 19z"/>
<path d="M3067 3688 c46 -46 86 -85 90 -88 3 -3 -2 9 -10 26 -32 62 -95 123
-143 138 -12 4 16 -30 63 -76z"/>
<path d="M1641 3718 c-17 -23 -31 -47 -31 -54 0 -10 30 -29 35 -22 5 8 45 107
45 112 0 17 -22 1 -49 -36z"/>
<path d="M3752 3737 c-23 -24 -52 -87 -52 -111 0 -8 11 -28 25 -43 l25 -28
-10 28 c-16 45 -12 79 15 126 29 50 28 61 -3 28z"/>
<path d="M2192 3657 c-34 -36 -65 -134 -60 -187 5 -41 66 -206 74 -198 2 2 -5
33 -16 69 -37 122 -36 144 10 237 37 75 43 102 21 102 -4 0 -17 -10 -29 -23z"/>
<path d="M2790 3671 c0 -5 13 -38 29 -73 39 -87 45 -138 26 -233 -8 -43 -13
-80 -12 -82 2 -1 16 32 30 75 42 120 32 239 -25 299 -22 23 -48 31 -48 14z"/>
<path d="M2370 3631 c-25 -15 -52 -36 -60 -45 -13 -17 -14 -17 -20 0 -10 27
-70 -100 -70 -145 l1 -36 13 37 c19 53 40 83 83 115 57 44 119 102 108 103 -5
0 -30 -13 -55 -29z"/>
<path d="M2612 3634 c15 -16 42 -38 60 -48 l33 -19 -27 29 c-15 16 -42 38 -60
48 l-33 19 27 -29z"/>
<path d="M2715 3599 c4 -13 16 -36 26 -51 11 -15 31 -46 45 -70 l25 -43 -6 35
c-4 19 -22 60 -40 90 -36 59 -62 80 -50 39z"/>
<path d="M3476 3565 c3 -22 35 -98 70 -170 78 -159 93 -228 98 -452 4 -148 7
-172 37 -274 26 -90 40 -120 72 -158 42 -49 64 -64 54 -37 -3 8 -11 64 -17
122 -12 115 -26 199 -36 216 -4 6 -8 63 -10 127 -2 101 -15 194 -40 280 -6 19
-4 22 7 16 10 -6 10 -3 -2 11 -8 10 -35 53 -59 94 -46 79 -125 198 -160 240
l-21 25 7 -40z"/>
<path d="M2606 3558 c4 -7 28 -37 52 -65 24 -29 51 -70 59 -90 l14 -38 -4 55
c-4 51 -8 58 -56 102 -50 46 -81 63 -65 36z"/>
<path d="M2354 3529 c-41 -32 -84 -94 -84 -119 1 -10 4 -9 12 5 6 11 36 46 66
77 62 64 66 85 6 37z"/>
<path d="M2074 3479 c-3 -6 -1 -16 5 -22 8 -8 11 -5 11 11 0 24 -5 28 -16 11z"/>
<path d="M1516 3318 c-81 -93 -99 -158 -117 -424 -11 -158 -6 -286 12 -356 11
-41 45 -87 90 -118 27 -20 166 -56 176 -46 2 2 -29 25 -69 51 -92 60 -115 80
-140 129 -16 32 -19 49 -13 90 8 56 10 148 5 301 -4 116 9 172 71 300 29 61
38 88 31 100 -7 14 -14 10 -46 -27z"/>
<path d="M2386 3216 c-6 -26 -51 -77 -101 -114 l-30 -23 31 15 c52 25 92 64
104 102 7 19 10 37 7 40 -2 3 -7 -6 -11 -20z"/>
<path d="M1770 3217 c0 -7 13 -34 29 -59 31 -49 98 -89 153 -92 52 -2 42 19
-19 38 -45 14 -70 30 -110 72 -29 29 -53 48 -53 41z"/>
<path d="M2578 3213 c14 -26 78 -82 124 -106 l33 -18 -30 23 c-16 12 -54 45
-84 73 -30 27 -49 40 -43 28z"/>
<path d="M3230 3195 c-17 -31 -74 -71 -136 -94 -27 -11 -49 -23 -49 -27 0 -19
40 -14 99 14 58 27 93 61 109 104 10 28 -9 30 -23 3z"/>
<path d="M1633 3123 c-24 -40 -29 -62 -31 -133 -3 -76 -1 -89 20 -120 28 -41
70 -64 101 -56 12 3 38 16 57 28 l35 22 -51 7 c-28 3 -60 11 -71 17 -26 14
-53 71 -53 112 l0 31 33 -34 c39 -42 100 -63 154 -52 l38 8 -58 17 c-104 32
-158 97 -143 171 3 16 4 29 1 29 -2 0 -17 -21 -32 -47z"/>
<path d="M1740 3145 c15 -40 48 -75 87 -91 48 -21 60 -17 27 8 -16 12 -51 42
-77 67 -46 44 -48 45 -37 16z"/>
<path d="M3242 3123 c-23 -24 -59 -52 -80 -62 -21 -11 -30 -20 -20 -21 26 0
71 19 96 43 22 21 57 77 50 80 -2 1 -22 -17 -46 -40z"/>
<path d="M3356 3125 c10 -78 -55 -143 -160 -159 -56 -9 -29 -26 42 -26 62 0
106 20 126 58 l15 27 1 -46 c0 -71 -25 -96 -105 -104 -73 -8 -74 -18 -9 -46
39 -18 46 -18 78 -5 20 8 42 28 51 46 37 71 27 207 -19 265 l-25 30 5 -40z"/>
<path d="M3835 3119 c4 -8 16 -23 26 -34 24 -28 80 -125 72 -125 -4 0 -34 26
-67 58 l-59 57 37 -67 c42 -77 40 -88 -4 -26 -16 22 -30 38 -30 34 0 -17 26
-54 69 -101 42 -45 51 -63 81 -165 34 -116 54 -244 37 -233 -5 3 -29 48 -54
101 -24 52 -45 93 -47 91 -6 -6 29 -142 43 -168 28 -51 -9 -7 -54 64 -25 41
-48 75 -50 75 -9 0 54 -132 78 -163 40 -53 47 -79 47 -180 l-1 -92 -29 57
c-35 66 -48 78 -42 38 2 -16 -3 -63 -13 -105 -12 -56 -21 -75 -33 -76 -10 0
-5 -6 13 -14 17 -7 33 -11 37 -9 4 3 10 25 14 51 l7 46 27 -32 26 -33 17 76
c9 42 17 103 17 135 l0 59 37 -19 c55 -28 69 -24 40 11 -32 37 -44 76 -51 169
-6 64 -34 197 -52 244 -4 13 2 14 35 10 47 -6 51 1 17 28 -12 10 -38 49 -55
86 -18 37 -43 82 -56 98 -24 32 -94 79 -80 54z"/>
<path d="M3465 2912 c0 -118 -17 -210 -40 -218 -16 -7 -133 22 -153 37 -9 7
-36 31 -60 53 l-44 41 45 -70 c71 -109 76 -115 125 -137 96 -42 97 -42 102
-78 5 -33 6 -34 13 -10 4 14 7 40 7 57 0 18 7 75 16 125 11 63 15 123 11 183
-8 141 -22 151 -22 17z"/>
<path d="M3855 2833 c20 -29 39 -53 42 -53 9 0 -32 62 -56 83 -16 15 -11 4 14
-30z"/>
<path d="M1160 2838 c-15 -21 -17 -28 -6 -19 16 13 41 51 33 51 -2 0 -14 -15
-27 -32z"/>
<path d="M3143 2765 c67 -99 93 -150 111 -218 10 -36 16 -47 21 -35 18 46 -52
186 -145 288 -40 43 -39 41 13 -35z"/>
<path d="M2207 2763 c-37 -85 -40 -161 -7 -203 l20 -25 -10 28 c-16 46 -12
142 10 199 27 71 19 71 -13 1z"/>
<path d="M2819 2771 c29 -56 49 -139 44 -181 -3 -27 -2 -31 6 -20 21 30 12
100 -21 167 -17 35 -35 66 -40 69 -5 4 0 -12 11 -35z"/>
<path d="M1119 2783 c-13 -16 -12 -17 4 -4 9 7 17 15 17 17 0 8 -8 3 -21 -13z"/>
<path d="M3875 2515 c9 -37 46 -121 40 -90 -4 17 -15 48 -26 70 -10 22 -17 31
-14 20z"/>
<path d="M940 2469 l-35 -30 33 18 c36 19 61 43 45 43 -5 0 -24 -14 -43 -31z"/>
<path d="M3091 2416 c-6 -8 -48 -38 -93 -67 -88 -58 -91 -76 -6 -34 62 29 90
52 107 84 15 27 9 38 -8 17z"/>
<path d="M1049 2378 c-13 -49 -7 -149 12 -193 l12 -30 8 53 c8 58 19 81 19 39
0 -37 30 -107 45 -107 22 0 25 14 10 56 -8 21 -15 77 -15 124 l-1 85 -27 -50
-27 -50 -3 58 c-2 31 -7 57 -12 57 -5 0 -14 -19 -21 -42z"/>
<path d="M2000 2370 c26 -25 66 -55 91 -68 l44 -23 -54 51 c-29 28 -58 49 -65
47 -6 -3 -23 5 -37 17 -14 11 -4 1 21 -24z"/>
<path d="M1398 2203 c7 -3 16 -2 19 1 4 3 -2 6 -13 5 -11 0 -14 -3 -6 -6z"/>
<path d="M1348 2193 c6 -2 18 -2 25 0 6 3 1 5 -13 5 -14 0 -19 -2 -12 -5z"/>
<path d="M3740 2185 c46 -18 64 -17 25 0 -16 8 -37 14 -45 14 -8 0 1 -7 20
-14z"/>
<path d="M1288 2183 c6 -2 18 -2 25 0 6 3 1 5 -13 5 -14 0 -19 -2 -12 -5z"/>
<path d="M3280 2173 c8 -3 17 -9 20 -13 3 -3 57 -14 120 -24 63 -9 129 -19
145 -22 69 -10 -50 26 -129 40 -100 18 -176 27 -156 19z"/>
<path d="M1788 2143 c6 -2 18 -2 25 0 6 3 1 5 -13 5 -14 0 -19 -2 -12 -5z"/>
<path d="M3258 2143 c7 -3 16 -2 19 1 4 3 -2 6 -13 5 -11 0 -14 -3 -6 -6z"/>
<path d="M3771 2134 c0 -11 3 -14 6 -6 3 7 2 16 -1 19 -3 4 -6 -2 -5 -13z"/>
<path d="M1085 2106 c-83 -34 -145 -64 -145 -71 0 -2 41 14 91 36 49 21 95 39
102 39 7 0 23 -18 37 -40 26 -41 41 -49 57 -27 6 8 1 28 -14 57 -14 26 -23 36
-23 25 0 -17 -1 -17 -12 -3 -12 14 -21 12 -93 -16z"/>
<path d="M1738 2133 c7 -3 16 -2 19 1 4 3 -2 6 -13 5 -11 0 -14 -3 -6 -6z"/>
<path d="M3337 2126 c33 -15 212 -66 232 -66 6 0 11 8 11 18 0 16 -16 21 -102
36 -57 9 -119 19 -138 22 l-35 5 32 -15z"/>
<path d="M3830 2113 l-1 -28 -13 23 c-12 23 -13 23 -31 -17 -10 -23 -25 -41
-34 -41 -9 -1 10 -14 42 -31 32 -16 55 -34 52 -39 -3 -5 3 -31 14 -59 l19 -50
-30 15 c-17 9 -28 11 -24 6 3 -5 19 -15 35 -22 27 -11 32 -20 51 -103 12 -50
26 -140 32 -201 10 -96 9 -122 -6 -188 -42 -189 -226 -468 -510 -778 -139
-151 -230 -279 -211 -298 10 -10 305 297 395 412 266 338 360 531 380 781 3
27 19 -40 30 -123 30 -219 -16 -541 -113 -782 -24 -60 -43 -110 -41 -110 2 0
21 31 44 68 90 153 164 386 176 555 11 153 -6 223 -156 680 l-19 59 27 -17
c27 -18 114 -80 182 -131 21 -15 15 -7 -15 20 -27 26 -85 70 -127 98 -43 28
-78 56 -78 63 0 6 -11 33 -24 58 -13 26 -21 47 -17 47 21 0 200 -101 262 -147
40 -30 67 -47 59 -38 -33 40 -149 118 -246 165 -113 56 -113 56 -67 126 16 25
16 27 -2 40 -27 20 -35 17 -35 -13z"/>
<path d="M3260 2121 c0 -8 48 -23 115 -36 43 -8 9 12 -52 30 -56 17 -63 18
-63 6z"/>
<path d="M1553 2059 c-65 -34 -126 -69 -135 -77 -17 -14 -18 -13 -18 8 0 23 0
23 -14 4 -14 -18 -15 -18 -22 -1 -4 10 -2 35 4 55 6 20 9 38 6 41 -5 6 -28
-21 -38 -43 -3 -7 -10 -5 -19 7 -26 31 -40 21 -34 -25 5 -43 5 -43 -9 -15 -8
15 -17 27 -20 27 -15 0 -44 -22 -39 -31 4 -5 0 -9 -8 -9 -18 0 -245 -112 -272
-134 -11 -9 5 -3 35 13 78 42 238 111 258 111 9 0 37 -21 63 -46 l46 -46 52
27 c28 14 68 40 89 59 53 46 99 77 162 108 30 15 50 27 43 28 -6 0 -65 -28
-130 -61z"/>
<path d="M3982 2072 c54 -27 103 -53 111 -58 7 -5 4 -1 -8 10 -23 21 -138 80
-175 90 -14 4 19 -15 72 -42z"/>
<path d="M3700 2060 c8 -5 20 -10 25 -10 6 0 3 5 -5 10 -8 5 -19 10 -25 10 -5
0 -3 -5 5 -10z"/>
<path d="M3659 2041 c15 -27 8 -39 -32 -49 l-32 -9 43 -22 c51 -26 65 -23 91
19 15 25 20 28 25 15 8 -22 8 -27 -3 -21 -8 5 -47 -43 -39 -48 50 -37 49 -37
83 12 l33 47 -56 27 c-32 14 -59 22 -60 17 -2 -5 -17 1 -34 12 l-30 22 11 -22z"/>
<path d="M3358 2033 c7 -3 16 -2 19 1 4 3 -2 6 -13 5 -11 0 -14 -3 -6 -6z"/>
<path d="M3460 1968 c0 -2 19 -21 42 -43 31 -30 37 -33 24 -13 -14 22 -66 66
-66 56z"/>
<path d="M1465 1936 c-33 -13 -75 -30 -92 -37 -35 -14 -33 -8 -38 -117 0 -16
-16 -35 -45 -57 -25 -18 -70 -59 -100 -91 -45 -47 -40 -44 28 19 83 76 102 88
102 65 0 -40 -34 -196 -70 -320 -36 -123 -41 -156 -41 -238 0 -53 1 -100 2
-105 2 -6 -3 -41 -11 -80 -8 -38 -15 -122 -15 -186 0 -110 2 -121 45 -247 24
-72 46 -130 48 -128 1 2 -13 74 -33 160 -21 95 -35 180 -34 218 1 68 1 67 35
-46 23 -78 84 -168 237 -354 120 -145 144 -177 115 -155 -7 5 -42 32 -78 58
-36 27 -92 74 -124 105 -32 30 -54 46 -48 35 39 -74 247 -265 403 -371 93 -63
97 -65 152 -62 l57 3 -82 60 c-84 62 -375 357 -473 480 -73 91 -140 229 -160
327 -16 84 -19 138 -7 138 4 0 22 -31 39 -68 39 -80 112 -158 205 -218 73 -47
162 -94 178 -94 5 0 -17 54 -50 119 -32 66 -67 150 -76 188 -14 55 -29 85 -84
158 -75 100 -110 163 -134 244 -18 61 -22 176 -6 186 6 3 10 -2 10 -12 0 -28
35 -79 124 -183 45 -52 129 -153 187 -225 57 -71 191 -222 298 -335 107 -113
212 -229 234 -258 23 -30 74 -120 115 -200 41 -81 72 -138 69 -127 -3 11 -8
43 -12 70 -3 28 -8 58 -11 68 -3 9 -1 17 3 17 13 0 85 -115 137 -219 26 -51
49 -91 52 -88 11 10 -56 161 -121 273 -84 144 -137 211 -350 439 -189 203
-471 528 -557 643 -31 41 -71 104 -89 140 -30 58 -33 72 -32 148 1 55 6 90 14
101 13 15 12 15 -11 4 -19 -9 -17 -5 10 18 19 17 30 31 25 31 -6 0 -17 -6 -24
-12 -10 -11 -11 -7 -5 17 11 46 16 50 31 21 16 -31 23 -32 54 -7 13 10 30 16
38 13 8 -2 11 0 8 6 -4 5 0 15 7 21 8 7 19 25 25 42 12 36 7 36 -74 5z m-164
-641 c6 -22 39 -97 74 -166 35 -69 79 -164 98 -210 18 -47 51 -112 72 -144
l38 -59 -84 74 c-127 114 -177 168 -204 224 -38 79 -49 159 -35 263 12 91 23
125 28 83 1 -14 7 -43 13 -65z"/>
<path d="M1594 1890 c-5 -5 -41 -22 -79 -38 -40 -16 -70 -35 -70 -43 0 -8 6
-13 13 -11 8 1 11 -2 8 -7 -3 -5 3 -19 13 -32 36 -47 43 -67 30 -91 -7 -12 14
6 47 41 32 35 60 67 62 71 1 4 -9 15 -23 24 -33 21 -32 49 3 75 15 11 22 21
17 21 -6 0 -15 -4 -21 -10z m-49 -160 c4 -8 -8 -2 -24 14 -17 17 -31 31 -31
33 0 9 50 -34 55 -47z"/>
<path d="M1209 1832 c-131 -74 -245 -162 -300 -235 -26 -33 -17 -27 42 29 84
79 170 142 279 204 81 45 88 50 74 50 -5 0 -48 -22 -95 -48z"/>
<path d="M3527 1845 c-10 -7 -28 -10 -40 -7 -16 4 -5 -11 36 -51 31 -30 57
-61 57 -68 0 -7 14 0 30 16 17 16 30 34 30 39 0 10 -57 62 -85 78 -6 4 -18 0
-28 -7z"/>
<path d="M1684 1798 l-19 -23 23 19 c21 18 27 26 19 26 -2 0 -12 -10 -23 -22z"/>
<path d="M1431 1690 c-1 -8 9 -35 20 -59 l20 -45 -21 -30 -21 -31 24 27 25 26
27 -70 c37 -95 131 -233 204 -301 33 -30 126 -97 207 -148 80 -51 182 -121
225 -156 43 -35 79 -61 79 -58 0 13 -149 205 -194 251 -28 27 -107 88 -176
134 -74 49 -158 116 -206 164 -76 76 -101 111 -181 254 -18 31 -32 50 -32 42z"/>
<path d="M2355 1636 c-16 -7 -39 -23 -50 -36 l-20 -22 50 23 c28 13 52 25 54
26 1 1 1 6 0 12 -3 6 -15 5 -34 -3z"/>
<path d="M2730 1593 c62 -69 64 -70 50 -43 -15 30 -70 90 -83 90 -5 0 10 -21
33 -47z"/>
<path d="M3850 1540 c0 -155 -21 -229 -108 -375 l-42 -70 49 54 c100 111 143
206 145 321 0 75 -19 170 -35 170 -5 0 -9 -45 -9 -100z"/>
<path d="M2355 1579 c-9 -17 -15 -33 -13 -35 3 -2 12 12 21 31 21 43 13 47 -8
4z"/>
<path d="M3504 1499 c-39 -51 -95 -130 -124 -174 -95 -143 -102 -150 -213
-203 -187 -89 -321 -223 -408 -405 -42 -88 -36 -100 13 -26 90 134 211 237
395 333 111 57 121 65 160 124 23 35 76 111 116 170 102 147 139 215 135 249
-3 25 -9 19 -74 -68z"/>
<path d="M2331 1514 c0 -11 3 -14 6 -6 3 7 2 16 -1 19 -3 4 -6 -2 -5 -13z"/>
<path d="M4104 1515 c52 -210 71 -551 41 -749 -8 -55 -13 -101 -11 -103 2 -3
17 49 33 114 26 108 28 133 27 303 0 167 -3 194 -26 281 -14 53 -36 114 -47
135 -12 22 -19 30 -17 19z"/>
<path d="M1786 1437 c3 -10 9 -15 12 -12 3 3 0 11 -7 18 -10 9 -11 8 -5 -6z"/>
<path d="M3459 1028 c-46 -39 -116 -95 -155 -123 -86 -65 -126 -109 -163 -183
-16 -31 -80 -127 -143 -212 -156 -212 -278 -384 -322 -452 l-37 -58 39 0 c36
0 42 4 78 57 62 91 333 477 420 598 43 60 106 139 139 175 33 36 78 88 100
115 22 28 62 74 89 103 27 28 47 52 44 52 -2 0 -42 -32 -89 -72z"/>
<path d="M3961 997 c-58 -153 -173 -357 -298 -531 -63 -88 -47 -88 38 1 146
153 246 340 279 522 6 34 10 64 8 66 -2 2 -14 -25 -27 -58z"/>
<path d="M3490 866 c-64 -50 -135 -124 -105 -108 22 12 173 151 165 152 -3 0
-30 -20 -60 -44z"/>
<path d="M1670 770 c24 -30 110 -120 191 -200 167 -166 213 -232 299 -434 l57
-131 79 -3 79 -3 -36 38 c-20 21 -67 81 -104 133 -149 209 -340 428 -474 543
-132 114 -142 120 -91 57z"/>
<path d="M1434 667 c28 -37 101 -102 258 -230 129 -106 162 -144 234 -278 81
-150 89 -159 130 -159 34 0 34 0 22 28 -7 16 -35 80 -63 143 -45 104 -56 121
-125 189 -79 78 -89 85 -333 244 -122 79 -144 90 -123 63z"/>
<path d="M2650 628 c-35 -48 -57 -115 -74 -227 l-12 -76 -29 55 c-15 30 -39
80 -52 110 -22 53 -23 54 -17 15 7 -44 53 -188 80 -250 l17 -40 12 35 c7 20
20 82 29 138 15 98 44 197 73 255 20 39 9 33 -27 -15z"/>
<path d="M3590 484 c-88 -80 -123 -105 -215 -150 -60 -29 -107 -53 -104 -54
16 -1 122 41 189 75 48 24 95 59 135 99 53 53 113 126 103 126 -2 0 -50 -43
-108 -96z"/>
<path d="M3157 394 c-43 -36 -101 -96 -127 -132 -43 -58 -150 -242 -150 -257
0 -3 15 -5 33 -5 33 0 35 2 100 133 60 120 113 196 210 305 33 36 17 25 -66
-44z"/>
<path d="M3492 271 c-18 -15 -93 -59 -167 -97 -75 -38 -166 -91 -203 -119
l-67 -50 67 -3 67 -3 98 75 c113 86 219 180 234 207 13 24 10 24 -29 -10z"/>
<path d="M2588 203 c-34 -53 -58 -117 -58 -156 0 -27 4 -22 24 33 13 36 33 86
44 113 12 26 20 47 18 47 -2 0 -14 -17 -28 -37z"/>
<path d="M1520 156 c60 -69 230 -181 230 -151 0 3 -48 37 -107 76 -60 39 -117
78 -128 87 -13 11 -11 6 5 -12z"/>
<path d="M3500 84 c-69 -36 -129 -70 -135 -75 -18 -18 32 -9 56 10 13 10 66
42 117 71 78 44 103 61 90 60 -2 0 -59 -30 -128 -66z"/>
<path d="M3530 35 l-65 -34 41 -1 c33 0 46 6 74 35 42 43 33 43 -50 0z"/>
</g>
</svg>
